<?xml version="1.0" encoding="UTF-8"?><svg id="Layer_1" xmlns="http://www.w3.org/2000/svg" viewBox="0 0 333 487"><defs><style>.cls-1{fill:none;}.cls-2{fill:#3a2a1a;}</style></defs><path class="cls-2" d="M29.4,435.6v-.8l.7-.2c.5-.1.8-.4,1-.7.2-.3.3-.8.3-1.3v-18.2c0-.5,0-.9-.2-1.2-.1-.3-.4-.5-.9-.7l-.8-.3v-.8h7l6.9,18,6.5-18h7.2v.8l-.6.2c-.5.1-.8.4-1,.7-.2.3-.3.7-.3,1.2,0,1.4,0,2.8,0,4.2v10c0,1.4,0,2.8,0,4.2,0,.5,0,.9.2,1.2.1.3.4.5.9.7l.7.3v.8h-8.9v-.8l.8-.3c.5-.2.8-.4.9-.7.1-.3.2-.7.2-1.2v-17.8c0,0-7.4,20.7-7.4,20.7h-2.1l-7.9-20.5v8.4c.1,0,.1,9.1.1,9.1,0,.5,0,1,.2,1.3.1.3.5.5.9.7l.7.3v.8h-5.1Z"/><path class="cls-2" d="M58.8,435.6v-.8l1-.3c.5-.1.9-.4,1.2-.7.3-.3.5-.7.7-1.2l7.4-21.4h3l7.4,21.6c.2.5.4.9.7,1.2.2.3.6.5,1.2.7h.6v.9h-9.3v-.7l.6-.2c.5-.2.9-.4,1-.8.1-.4,0-.8,0-1.4l-1.5-4.7h-8.1l-1.6,4.7c-.2.5-.2,1-.1,1.3,0,.3.4.6.9.8l.8.3v.8h-5.6ZM64.8,426.7h7.4l-3.6-11.1-3.8,11.1Z"/><path class="cls-2" d="M83.8,435.6v-.8l.7-.2c.5-.2.8-.4,1-.7.2-.3.2-.7.2-1.2v-18.5c0-.5,0-.9-.2-1.2-.2-.3-.5-.5-1-.7l-.7-.2v-.8h9.2v.8l-.7.2c-.5.2-.8.4-1,.7-.2.3-.3.7-.3,1.2v18.5c0,.5,0,.9.3,1.2.2.3.5.5,1,.7l.7.2v.8h-9.2Z"/><path class="cls-2" d="M103.2,436.2c-1.3,0-2.7-.2-4.1-.5-1.4-.3-2.5-.8-3.5-1.3l.2-5.1h1.1l1.1,2.5c.3.7.7,1.3,1.1,1.8.4.5.9.8,1.5,1.1.4.2.8.3,1.2.3.4,0,.8,0,1.3,0,1.5,0,2.7-.4,3.5-1.2.9-.8,1.3-1.8,1.3-3.1s-.3-2.1-.9-2.7c-.6-.7-1.6-1.3-2.9-1.9l-1.5-.7c-2.1-.9-3.7-2-4.9-3.2-1.2-1.2-1.8-2.8-1.8-4.8s.4-2.7,1.1-3.8c.7-1,1.8-1.8,3.1-2.4,1.3-.6,2.9-.8,4.6-.8s2.5.2,3.7.5c1.1.3,2.1.8,3,1.4l-.3,4.6h-1.1l-1.4-2.8c-.4-.8-.8-1.4-1.1-1.7-.4-.4-.8-.6-1.3-.7-.3,0-.5,0-.8-.1-.2,0-.5,0-.8,0-1.2,0-2.2.3-3.1,1-.9.7-1.3,1.7-1.3,2.9s.3,2.1,1,2.9c.7.7,1.6,1.4,2.9,1.9l1.7.7c2.4,1,4.1,2.1,5.1,3.3,1,1.2,1.5,2.6,1.5,4.5s-.8,3.9-2.4,5.2c-1.6,1.3-3.9,2-6.9,2Z"/><path class="cls-2" d="M126.7,436.2c-1.5,0-2.9-.3-4.3-.8-1.4-.5-2.6-1.3-3.7-2.4-1.1-1.1-2-2.4-2.6-4-.6-1.6-1-3.5-1-5.6s.3-3.9,1-5.5c.6-1.6,1.5-2.9,2.6-4,1.1-1.1,2.3-1.9,3.7-2.4,1.4-.6,2.8-.8,4.3-.8s2.9.3,4.3.8c1.4.5,2.6,1.3,3.7,2.4,1.1,1.1,1.9,2.4,2.6,4,.6,1.6,1,3.5,1,5.6s-.3,3.9-1,5.5c-.6,1.6-1.5,2.9-2.6,4-1.1,1.1-2.3,1.9-3.7,2.4-1.4.6-2.8.8-4.3.8ZM126.7,435.1c1.4,0,2.5-.4,3.4-1.1.9-.7,1.5-1.9,1.9-3.7.4-1.7.6-4,.6-6.9s-.2-5.2-.6-6.9c-.4-1.7-1-2.9-1.9-3.6-.9-.7-2-1.1-3.4-1.1s-2.5.4-3.4,1.1c-.9.7-1.5,1.9-1.9,3.6-.4,1.7-.6,4-.6,6.9s.2,5.2.6,6.9c.4,1.7,1,2.9,1.9,3.7.9.7,2,1.1,3.4,1.1Z"/><path class="cls-2" d="M140.2,435.6v-.8l1.1-.3c.5-.1.8-.4,1-.7.2-.3.3-.8.3-1.2v-17.8c-.2-.5-.4-.8-.6-1-.2-.2-.3-.4-.5-.6-.2-.2-.4-.4-.7-.6l-.7-.5v-.8h6.3l12.2,16.7v-13.6c0-.5,0-.9-.2-1.3-.2-.4-.5-.6-1-.7l-1.1-.3v-.8h5.5v.8l-.9.3c-.5.1-.8.4-.9.8-.1.4-.2.8-.2,1.3v21.4h-2.1l-14-19.2v16c0,.5,0,.9.2,1.3.1.3.5.6.9.7l1,.3v.8h-5.7Z"/><path class="cls-2" d="M170.5,435.7v-.8l.7-.3c.8-.2,1.2-.9,1.2-1.8,0-1.4,0-2.8,0-4.3v-10c0-1.4,0-2.8,0-4.3,0-1-.4-1.6-1.1-1.9l-.8-.2v-.8h9.7c2.6,0,4.8.5,6.6,1.4,1.9,1,3.3,2.3,4.3,4.1,1,1.8,1.5,4,1.5,6.5s-.5,4.8-1.6,6.6c-1.1,1.8-2.6,3.2-4.6,4.1-2,1-4.3,1.4-6.9,1.4h-9ZM177.8,434.6h1.9c1.7,0,3.2-.3,4.2-1,1.1-.7,1.9-1.8,2.4-3.5.5-1.6.8-3.8.8-6.6s-.3-5-.8-6.6c-.5-1.6-1.3-2.8-2.4-3.5-1.1-.7-2.4-1-4.1-1h-2c0,1.7,0,3.4,0,5.1v11.8c0,1.8,0,3.5,0,5.2Z"/><path class="cls-2" d="M194.1,435.7v-.8l.7-.3c.4-.1.7-.3.9-.6.2-.3.3-.7.3-1.3v-18.5c0-.5-.1-.9-.3-1.2-.1-.3-.5-.5-.9-.6l-.8-.3v-.8h17.5l.3,5.9h-1l-1.5-3.3c-.2-.5-.4-.8-.7-1.1-.2-.3-.6-.4-1.1-.4h-6.2c0,1.5,0,3.1,0,4.7v5.4h3.6c.5,0,.9-.1,1.1-.4s.5-.6.7-1l.6-1.4h.8v6.8h-.8l-.7-1.4c-.2-.4-.4-.8-.7-1.1-.2-.3-.6-.4-1.1-.4h-3.7v4.6c0,1.3,0,2.4,0,3.4,0,1,0,2,0,2.9h7c.5,0,.9-.1,1.1-.4.3-.3.5-.6.7-1.1l1.4-3.3h1l-.3,5.9h-18.2Z"/><path class="cls-2" d="M227.8,435.7v-.8l1.5-.3c1-.2,1.5-.8,1.5-1.8v-15.2c0-1.7,0-3.4,0-5.1h-2.9c-.8,0-1.4.2-1.7.6-.4.4-.7,1-1.1,1.8l-1.3,2.7h-1l.2-6.2h21.1l.2,6.2h-1l-1.3-2.7c-.4-.8-.7-1.3-1.1-1.8-.4-.4-.9-.6-1.7-.6h-2.9v20.3c0,1,.5,1.6,1.5,1.8l1.5.3v.8h-11.3Z"/><path class="cls-2" d="M246.5,435.7v-.8l.7-.2c.5-.2.8-.4,1-.7.2-.3.3-.7.3-1.2v-18.6c0-.5,0-.9-.2-1.2-.2-.3-.5-.5-1-.7l-.7-.2v-.8h9.1v.8l-.6.2c-.5.2-.8.4-1,.7-.2.3-.3.7-.3,1.2v8.4h9.1v-8.4c0-.5,0-.9-.3-1.2-.2-.3-.5-.5-1-.7l-.6-.2v-.8h9.1v.8l-.7.2c-.5.2-.8.4-1,.7-.2.3-.3.7-.3,1.2v18.6c0,.5,0,.9.3,1.2.2.3.5.5,1,.7l.7.2v.8h-9.1v-.8l.6-.2c.5-.2.8-.4,1-.7.2-.3.3-.7.3-1.2v-9.1h-9.1v9.1c0,.5,0,.9.3,1.2.2.3.5.5,1,.7l.6.2v.8h-9.1Z"/><path class="cls-2" d="M274.9,435.3v-.8l.7-.3c.4-.1.7-.3.9-.6.2-.3.3-.7.3-1.3v-18.5c0-.5-.1-.9-.3-1.2-.1-.3-.5-.5-.9-.6l-.8-.3v-.8h17.5l.3,5.9h-1l-1.5-3.3c-.2-.5-.4-.8-.7-1.1-.2-.3-.6-.4-1.1-.4h-6.2c0,1.5,0,3.1,0,4.7v5.4h3.6c.5,0,.9-.1,1.1-.4s.5-.6.7-1l.6-1.4h.8v6.8h-.8l-.7-1.4c-.2-.4-.4-.8-.7-1.1-.2-.3-.6-.4-1.1-.4h-3.7v4.6c0,1.3,0,2.4,0,3.4,0,1,0,2,0,2.9h7c.5,0,.9-.1,1.1-.4.3-.3.5-.6.7-1.1l1.4-3.3h1l-.3,5.9h-18.2ZM281.3,408.5c.6-.6,1.3-1.3,1.9-1.9.6-.7,1.3-1.3,1.9-1.9.6-.6,1.1-1.1,1.5-1.3.4-.2.8-.3,1.1-.3s.8.1,1.1.4c.3.3.4.6.4,1.1s-.2.8-.5,1.1c-.3.4-.9.7-1.7,1.1-.9.4-1.8.8-2.6,1.2-.8.4-1.7.8-2.6,1.2l-.5-.6Z"/><path class="cls-2" d="M157.2,379.2c-64.3,0-116.7-52.3-116.7-116.7v-104.9c0-64.3,52.3-116.7,116.7-116.7s116.7,52.3,116.7,116.7v104.9c0,64.3-52.3,116.7-116.7,116.7ZM157.2,42.7c-63.4,0-114.9,51.6-114.9,114.9v104.9c0,63.4,51.6,114.9,114.9,114.9s114.9-51.6,114.9-114.9v-104.9c0-63.4-51.6-114.9-114.9-114.9Z"/><path class="cls-2" d="M157.2,369.7c-59.1,0-107.2-48.1-107.2-107.2v-104.9c0-59.1,48.1-107.2,107.2-107.2s107.2,48.1,107.2,107.2v104.9c0,59.1-48.1,107.2-107.2,107.2ZM157.2,53.9c-57.2,0-103.8,46.5-103.8,103.8v104.9c0,57.2,46.5,103.8,103.8,103.8s103.8-46.5,103.8-103.8v-104.9c0-57.2-46.5-103.8-103.8-103.8Z"/><path class="cls-2" d="M118.8,155.5c5.8,3.2,12.5,4.9,19.8,4.9s12.6-1.1,19.6-3.3h0c0,0,0,0,0,0,7,2.2,13.5,3.3,19.6,3.3s14-1.6,19.8-4.9c14.8-8.2,18.8-23.7,19-24.4l.7-2.6-2.6-.7c-1.2-.3-24.2-6-40.6,4,.9-3.6,1.4-7.4,1.4-11.8,0-15-5.6-29.4-15.3-39.5l-2-2-2,2c-9.8,10.1-15.3,24.5-15.3,39.5s.5,8.3,1.4,11.8c-16.3-10-39.4-4.3-40.6-4l-2.6.7.7,2.6c.2.7,4.2,16.2,19,24.4ZM169,144.2c10.2-15.6,33.4-13.2,41.6-11.7-1.7,4.4-6.2,13.2-15.5,18.3-8.7,4.8-19.6,5.4-32.6,1.8,2.4-2.7,4.6-5.5,6.5-8.4h0ZM158.3,86.4c7.6,8.9,11.9,21,11.9,33.6s-3.4,19-9.2,26.1v-38h-5.4v38c-5.7-7.1-9.2-14.7-9.2-26.1s4.3-24.6,11.9-33.6ZM147.6,144.2h0c1.8,2.9,4,5.7,6.5,8.4-12.9,3.5-23.9,3-32.6-1.8-9.3-5.1-13.7-13.9-15.5-18.3,8.2-1.4,31.4-3.9,41.6,11.7Z"/><path class="cls-2" d="M227.2,169.1c3.9-2.5,6.3-6.5,6.3-11.5h-5.4c0,8.1-8.4,8.8-11,8.8h-117.5c-2.6,0-11-.6-11-8.8h-5.4c0,5,2.3,9,6.3,11.5-3.9,2.5-6.3,6.5-6.3,11.5h5.4c0-8.1,8.4-8.8,11-8.8h56v51.8c-24.8-42.3-50.6-39.1-52.3-39.1h-2.3v115.4c0,2.6-.6,11-8.8,11v5.4c5,0,9-2.3,11.5-6.3,2.5,3.9,6.5,6.3,11.5,6.3v-5.4c-8.1,0-8.8-8.4-8.8-11v-79.2c14,10.2,25.9,26.1,35.4,47.5-4.1,12.9-8,27.7-11.4,44.7h5.6c2.8-13.8,5.9-26,9.1-36.9,4.4,11,8.2,23.3,11.4,36.9h6.7c2.7-12,5.9-23.1,9.4-33.1,2.9,9.9,5.6,20.9,8.1,33.1h5.6c-3.2-15.7-6.7-29.4-10.4-41.6,9.1-22.8,20.6-39.7,34.4-50.4v79c0,2.6-.6,11-8.8,11v5.4c5,0,9-2.3,11.5-6.3,2.5,3.9,6.5,6.3,11.5,6.3v-5.4c-8.1,0-8.8-8.4-8.8-11v-115.4h-2.3c-1.7,0-27.5-3.2-52.3,39.1v-51.8h56c2.6,0,11,.6,11,8.8h5.4c0-5-2.3-9-6.3-11.5ZM144.3,260.8c-10.2-21.2-22.9-36.9-37.9-46.7v-24c7,.5,28.6,5.4,48.8,44.5-3.7,7.6-7.4,16.2-10.9,26.2ZM210.2,190v24.2c-14.8,10.3-27.1,26.8-37,49.3-3.8-11.1-7.8-20.7-11.8-28.9,20.2-39.1,41.8-44,48.8-44.5ZM170,271.2c-3.8,9.8-7.2,20.6-10.2,32.5-3.5-13.1-7.6-25-12.2-35.7,3.4-10.4,7-19.4,10.7-27.2,4,8.6,8,18.7,11.7,30.4Z"/><rect id="_Slice_" class="cls-1" width="333" height="487"/></svg>